<svg width="190" height="25" viewBox="0 0 190 25" fill="none" xmlns="http://www.w3.org/2000/svg">
<g clip-path="url(#clip0_10_55)">
<path d="M38.1927 19.4681C41.8472 19.4681 44.4466 16.5736 44.4466 12.5008C44.4466 8.42811 41.8456 5.53361 38.1927 5.53361C34.5398 5.53361 31.9388 8.42811 31.9388 12.5008C31.9388 16.5736 34.5398 19.4681 38.1927 19.4681ZM50.0752 12.5008C50.0752 19.6043 44.9733 25 38.1927 25C31.4121 25 26.3102 19.6043 26.3102 12.5008C26.3102 5.3974 31.4121 0 38.1927 0C44.9733 0 50.0752 5.39569 50.0752 12.5008Z" fill="white"/>
<path d="M57.5891 0.5466V10.2466L65.8186 0.5466H73.3558L63.1521 11.8862L74.3768 24.4535H66.7064L57.5891 14.0367V24.4535H51.9934V0.5466H57.5891Z" fill="white"/>
<path d="M89.0521 14.6173L86.8087 8.23066L84.5756 14.6173H89.0521ZM90.9608 20.0147H82.6653L81.1196 24.4535H75.1575L84.147 0.5466H89.4807L98.4598 24.4535H92.5081L90.9608 20.0147Z" fill="white"/>
<path d="M125.086 14.7892L129.925 16.9397C128.015 21.9608 124.263 25 118.766 25C111.227 25 107.179 19.3642 107.179 12.9435C107.179 6.48877 111.261 0.00338745 119.26 0.00338745C123.802 0.00338745 127.061 1.98527 129.201 5.60511L124.823 8.94739C123.638 6.76289 121.564 5.54211 119.028 5.54211C114.849 5.54211 112.808 8.94739 112.808 12.4753C112.808 16.4357 115.343 19.4426 119.161 19.4426C122.058 19.4426 124.065 17.7007 125.086 14.7977V14.7892Z" fill="white"/>
<path d="M101.292 18.4611C100.913 18.7454 100.049 19.1575 99.7484 19.5287C99.4088 19.9509 99.3973 20.1059 99.3727 20.6558C99.3187 21.8153 99.7271 23.0396 100.602 23.7547C100.8 23.9107 101.008 24.054 101.224 24.1837C101.432 24.3229 101.652 24.4426 101.88 24.5413C102.162 24.6431 102.456 24.7004 102.755 24.7116C103.538 24.7934 104.327 24.6342 105.024 24.2536C105.703 23.8517 106.232 23.1315 106.297 22.3227C106.331 21.9175 106.25 21.5106 106.238 21.1036C106.225 20.632 106.307 20.1587 106.283 19.6871C106.258 19.2154 106.098 18.7131 105.721 18.4458C105.534 18.3283 105.328 18.2437 105.113 18.1955C104.42 18.0031 103.636 17.7511 102.92 17.7801C102.294 17.8056 101.772 18.0899 101.292 18.4611Z" fill="#FADE74"/>
<path d="M162.745 10.7267C164.358 10.7267 165.51 9.87544 165.51 8.19833C165.51 6.59272 164.489 5.87589 162.941 5.87589H159.453V10.7267H162.745ZM171.114 7.75394C171.114 10.5207 169.566 13.1173 166.735 14.3466L172.364 24.4552H165.879L161.296 15.7785H159.453V24.462H153.857V0.5466H163.444C168.744 0.5466 171.114 3.96211 171.114 7.75222V7.75394Z" fill="white"/>
<path d="M180.29 6.08022V9.70005H188.288V15.2319H180.29V18.9216H190V24.4535H174.695V0.5466H189.737V6.08022H180.29Z" fill="white"/>
<path d="M18.8288 11.0128V24.5029H24.4247V0.59597H17.4783L12.2123 13.4373L6.94472 0.59597H0V24.5029H5.59583V11.0128L8.99923 18.9522C9.07474 19.1038 10.0495 21.1946 12.2287 21.1946C14.408 21.1946 15.4336 18.9557 15.4336 18.9557" fill="white"/>
<path d="M143.179 14.6173L140.941 8.23066L138.702 14.6173H143.179ZM145.087 20.0147H136.794L135.246 24.4535H129.288L138.274 0.5466H143.607L152.593 24.4535H146.635L145.087 20.0147Z" fill="white"/>
</g>
<defs>
<clipPath id="clip0_10_55">
<rect width="190" height="25" fill="white"/>
</clipPath>
</defs>
</svg>
