<svg width="173" height="19" viewBox="0 0 173 19" fill="none" xmlns="http://www.w3.org/2000/svg">
<g clip-path="url(#clip0_1328_874)">
<path d="M11.575 0.960095C12.6423 1.4929 13.4731 2.24687 14.0621 3.21697C14.6512 4.18708 14.9432 5.31803 14.9432 6.61988C14.9432 7.92174 14.6512 9.05269 14.0621 10.0228C13.4731 10.9929 12.6474 11.7418 11.575 12.2797C10.5076 12.8125 9.26903 13.0789 7.85929 13.0789H4.91898V18.8442H0V0.160889H7.85929C9.26903 0.160889 10.5076 0.427291 11.575 0.960095ZM7.40112 9.07279C8.18655 9.07279 8.80583 8.85666 9.25896 8.41935C9.71209 7.98205 9.93865 7.3839 9.93865 6.61988C9.93865 5.85586 9.71209 5.25269 9.25896 4.82041C8.80583 4.38814 8.18655 4.16697 7.40112 4.16697H4.91394V9.07782H7.40112V9.07279Z" fill="white"/>
<path d="M28.7035 0.960095C29.791 1.4929 30.6369 2.24687 31.241 3.21697C31.8452 4.18708 32.1473 5.31803 32.1473 6.61988C32.1473 7.74078 31.8956 8.75613 31.3971 9.66089C30.8987 10.5707 30.219 11.3045 29.3631 11.8776L32.7565 18.8442H27.3592L24.6052 13.0789H21.9619V18.8442H17.043V0.160889H24.9274C26.3523 0.160889 27.611 0.427291 28.6934 0.960095H28.7035ZM24.5347 9.07279C25.3352 9.07279 25.9696 8.85666 26.4328 8.41935C26.896 7.98205 27.1276 7.3839 27.1276 6.61988C27.1276 5.85586 26.896 5.25269 26.4328 4.82041C25.9696 4.38814 25.3352 4.16697 24.5347 4.16697H21.967V9.07782H24.5347V9.07279Z" fill="white"/>
<path d="M47.9608 0.160889V4.32279H39.9706V7.52465H46.3597V11.4201H39.9706V14.6773H48.2578V18.8392H35.0566V0.160889H47.9658H47.9608Z" fill="white"/>
<path d="M55.7343 14.5566C56.3032 15.009 57.0786 15.2352 58.0604 15.2352C58.8458 15.2352 59.4751 15.0844 59.9585 14.7828C60.4418 14.4812 60.6785 14.0339 60.6785 13.4508C60.6785 13.0788 60.5425 12.7823 60.2757 12.5712C60.0088 12.3601 59.596 12.1741 59.0321 12.0233C58.4682 11.8725 57.5468 11.6614 56.268 11.395C55.0194 11.1286 53.9872 10.8119 53.1666 10.45C52.3459 10.0881 51.6863 9.53518 51.1879 8.7963C50.6895 8.05741 50.4377 7.07725 50.4377 5.84577C50.4377 4.74497 50.7549 3.74471 51.3843 2.85503C52.0186 1.96534 52.8897 1.26667 54.0023 0.758995C55.115 0.251323 56.3586 0 57.7331 0C59.1076 0 60.4116 0.256349 61.5394 0.774074C62.6672 1.2918 63.5634 2.00556 64.2129 2.92037C64.8624 3.83519 65.1896 4.85556 65.1896 5.97646H60.4066C60.3512 5.31799 60.0944 4.79021 59.6312 4.38809C59.168 3.98598 58.5336 3.78995 57.7331 3.78995C57.0383 3.78995 56.4744 3.93069 56.0364 4.2172C55.5984 4.5037 55.3819 4.9209 55.3819 5.47381C55.3819 5.84577 55.5128 6.1373 55.7695 6.34339C56.0263 6.54947 56.4341 6.7254 56.988 6.87619C57.5418 7.02698 58.438 7.22804 59.6866 7.47434C60.9503 7.72566 62.0026 8.02725 62.8384 8.3791C63.6741 8.73095 64.3488 9.26878 64.8573 9.98254C65.3658 10.6963 65.6176 11.6463 65.6176 12.8376C65.6176 14.0288 65.2853 15.0442 64.6308 15.9841C63.9712 16.9291 63.0599 17.663 61.8918 18.2008C60.7238 18.7336 59.4198 19 57.9748 19C56.5298 19 55.1251 18.7235 53.9117 18.1706C52.6983 17.6177 51.7468 16.8638 51.052 15.9037C50.3572 14.9437 50.0098 13.868 50.0098 12.6767L54.7928 12.7823C54.8482 13.5111 55.1603 14.1042 55.7293 14.5566H55.7343Z" fill="white"/>
<path d="M81.6633 0.160889V4.32279H76.6134V18.8392H71.6944V4.32279H66.6445V0.160889H81.6633Z" fill="white"/>
<path d="M86.7347 0.160889H92.6707L99.3015 18.8392H94.01L92.8318 15.2905H86.3118L85.1639 18.8392H80.0586L86.7347 0.160889ZM91.548 11.4201L89.5441 5.36327L87.5654 11.4201H91.548Z" fill="white"/>
<path d="M105.469 14.5566C106.038 15.009 106.813 15.2352 107.795 15.2352C108.58 15.2352 109.21 15.0844 109.693 14.7828C110.176 14.4812 110.413 14.0339 110.413 13.4508C110.413 13.0788 110.277 12.7823 110.01 12.5712C109.743 12.3601 109.33 12.1741 108.766 12.0233C108.203 11.8725 107.281 11.6614 106.002 11.395C104.754 11.1286 103.722 10.8119 102.901 10.45C102.08 10.0881 101.421 9.53518 100.922 8.7963C100.424 8.05741 100.172 7.07725 100.172 5.84577C100.172 4.74497 100.489 3.74471 101.119 2.85503C101.753 1.96534 102.624 1.26667 103.737 0.758995C104.849 0.251323 106.093 0 107.467 0C108.842 0 110.146 0.256349 111.274 0.774074C112.402 1.2918 113.298 2.00556 113.947 2.92037C114.597 3.83519 114.924 4.85556 114.924 5.97646H110.141C110.086 5.31799 109.829 4.79021 109.366 4.38809C108.902 3.98598 108.268 3.78995 107.467 3.78995C106.773 3.78995 106.209 3.93069 105.771 4.2172C105.333 4.5037 105.116 4.9209 105.116 5.47381C105.116 5.84577 105.247 6.1373 105.504 6.34339C105.761 6.54947 106.169 6.7254 106.722 6.87619C107.276 7.02698 108.172 7.22804 109.421 7.47434C110.685 7.72566 111.737 8.02725 112.573 8.3791C113.409 8.73095 114.083 9.26878 114.592 9.98254C115.1 10.6963 115.352 11.6463 115.352 12.8376C115.352 14.0288 115.02 15.0442 114.365 15.9841C113.706 16.9291 112.794 17.663 111.626 18.2008C110.458 18.7336 109.154 19 107.709 19C106.264 19 104.859 18.7235 103.646 18.1706C102.433 17.6177 101.481 16.8638 100.786 15.9037C100.092 14.9437 99.7441 13.868 99.7441 12.6767L104.527 12.7823C104.583 13.5111 104.895 14.1042 105.464 14.5566H105.469Z" fill="white"/>
<path d="M122.89 0.160889V7.33867H129.118V0.160889H134.037V18.8392H129.118V11.5006H122.89V18.8392H117.971V0.160889H122.89Z" fill="white"/>
<path d="M150.973 17.7585C149.538 18.5878 147.897 19 146.044 19C144.192 19 142.545 18.5878 141.115 17.7585C139.68 16.9291 138.568 15.7981 137.772 14.3556C136.982 12.913 136.584 11.2944 136.584 9.5C136.584 7.70556 136.982 6.08704 137.772 4.64444C138.568 3.20185 139.68 2.0709 141.115 1.24153C142.55 0.412169 144.192 0 146.044 0C147.897 0 149.544 0.412169 150.973 1.24153C152.403 2.0709 153.521 3.20185 154.316 4.64444C155.107 6.08704 155.505 7.70556 155.505 9.5C155.505 11.2944 155.107 12.913 154.316 14.3556C153.521 15.7981 152.408 16.9291 150.973 17.7585ZM146.044 14.9437C147.379 14.9437 148.456 14.431 149.267 13.4106C150.077 12.3902 150.485 11.0833 150.485 9.5C150.485 7.91667 150.082 6.61481 149.267 5.58942C148.456 4.56402 147.384 4.05635 146.044 4.05635C144.705 4.05635 143.633 4.56905 142.822 5.58942C142.011 6.60979 141.604 7.91667 141.604 9.5C141.604 11.0833 142.006 12.3852 142.822 13.4106C143.638 14.436 144.705 14.9437 146.044 14.9437Z" fill="white"/>
<path d="M169.632 0.960095C170.699 1.4929 171.53 2.24687 172.119 3.21697C172.708 4.18708 173 5.31803 173 6.61988C173 7.92174 172.708 9.05269 172.119 10.0228C171.53 10.9929 170.704 11.7418 169.632 12.2797C168.564 12.8125 167.326 13.0789 165.916 13.0789H162.976V18.8442H158.057V0.160889H165.916C167.326 0.160889 168.564 0.427291 169.632 0.960095ZM165.463 9.07279C166.248 9.07279 166.868 8.85666 167.321 8.41935C167.774 7.98205 168 7.3839 168 6.61988C168 5.85586 167.774 5.25269 167.321 4.82041C166.868 4.38814 166.248 4.16697 165.463 4.16697H162.976V9.07782H165.463V9.07279Z" fill="white"/>
</g>
<defs>
<clipPath id="clip0_1328_874">
<rect width="173" height="19" fill="white"/>
</clipPath>
</defs>
</svg>
