<svg width="156" height="34" viewBox="0 0 156 34" fill="none" xmlns="http://www.w3.org/2000/svg">
<g clip-path="url(#clip0_12_3)">
<path fill-rule="evenodd" clip-rule="evenodd" d="M8.31828 13.1762C7.97531 15.2888 7.87902 18.1872 7.87902 22.3383H0C0 18.2251 0.0836109 14.7478 0.538516 11.9455C0.997476 9.11813 1.91061 6.44802 3.99611 4.40503C6.07722 2.36635 8.79153 1.47621 11.6668 1.0279C14.5218 0.582741 18.0682 0.5 22.2734 0.5V8.27801C18.0313 8.27801 15.0624 8.37288 12.896 8.71067C10.7498 9.0453 9.9365 9.54342 9.54595 9.92604C9.1598 10.3043 8.65716 11.0885 8.31828 13.1762Z" fill="white"/>
<path fill-rule="evenodd" clip-rule="evenodd" d="M21.8332 17.439C22.1762 15.3264 22.2725 12.428 22.2725 8.27695H30.1515C30.1515 12.3901 30.0679 15.8674 29.613 18.6697C29.154 21.4971 28.2409 24.1672 26.1554 26.2102C24.0743 28.2489 21.36 29.139 18.4847 29.5873C15.6297 30.0325 12.0833 30.1152 7.87814 30.1152V22.3372C12.1202 22.3372 15.0891 22.2423 17.2555 21.9045C19.4017 21.5699 20.215 21.0718 20.6056 20.6892C20.9917 20.3109 21.4943 19.5267 21.8332 17.439Z" fill="white"/>
<path d="M39.9286 27.9523V5.08334H56.9813V8.61251H44.0756V14.1886H54.9793V17.6825H44.0756V27.9523H39.9286Z" fill="white"/>
<path d="M61.8846 17.7177H71.5729C71.3821 16.4708 70.8342 15.4709 69.9284 14.718C69.0226 13.9415 67.9501 13.5533 66.7109 13.5533C65.5669 13.5533 64.5422 13.9415 63.6364 14.718C62.7306 15.4709 62.147 16.4708 61.8846 17.7177ZM57.8091 19.2353C57.8091 16.7178 58.6908 14.5768 60.4546 12.8122C62.2185 11.0241 64.3751 10.13 66.9254 10.13C69.2849 10.13 71.2869 11.0123 72.9314 12.7769C74.5996 14.518 75.4339 16.6237 75.4339 19.0941L75.3266 20.6117H61.9204C62.2064 21.9527 62.8499 22.9997 63.8509 23.7526C64.8519 24.482 66.0437 24.8467 67.4259 24.8467C69.3564 24.8467 71.0487 24.3408 72.5024 23.3291L74.0754 26.223C72.0019 27.6112 69.7617 28.3052 67.3544 28.3052C64.7089 28.3052 62.4566 27.4935 60.5976 25.8701C58.7386 24.2232 57.8091 22.0115 57.8091 19.2353Z" fill="white"/>
<path d="M79.0219 27.9523V10.483H82.9901V13.9415C83.395 12.9063 84.1221 12.0123 85.1709 11.2594C86.2434 10.5065 87.6493 10.13 89.3894 10.13V14.4003C85.1231 14.4003 82.9901 16.5413 82.9901 20.8234V27.9523H79.0219Z" fill="white"/>
<path d="M96.1127 27.9876L90.2855 10.483H94.1465L97.2925 20.1529C97.4355 20.5764 97.5548 21.0587 97.65 21.5998C97.7693 22.141 97.8524 22.588 97.9002 22.9409L97.9717 23.435C98.091 22.188 98.2698 21.1058 98.508 20.1882L101.118 10.483H105.014L107.624 20.1882C107.719 20.5882 107.815 21.0587 107.91 21.5998C108.005 22.141 108.077 22.588 108.125 22.9409L108.16 23.435C108.303 22.188 108.53 21.094 108.84 20.1529L111.986 10.483H115.847L110.019 27.9876H106.444L103.692 18.2824L103.084 15.0356C102.917 16.3296 102.714 17.4119 102.476 18.2824L99.6877 27.9876H96.1127Z" fill="white"/>
<path d="M116.845 19.2353C116.845 16.6708 117.62 14.518 119.169 12.7769C120.742 11.0123 122.744 10.13 125.175 10.13C127.582 10.13 129.501 11.1653 130.931 13.2357V10.483H134.899V27.9523H130.931V25.2349C129.525 27.2818 127.606 28.3052 125.175 28.3052C122.744 28.3052 120.742 27.4347 119.169 25.6937C117.62 23.9291 116.845 21.7763 116.845 19.2353ZM122.315 15.4238C121.362 16.4355 120.885 17.706 120.885 19.2353C120.885 20.7646 121.362 22.0351 122.315 23.0468C123.292 24.035 124.532 24.529 126.033 24.529C127.439 24.529 128.607 24.035 129.537 23.0468C130.466 22.0586 130.931 20.7881 130.931 19.2353C130.931 17.706 130.466 16.4355 129.537 15.4238C128.607 14.4121 127.439 13.9062 126.033 13.9062C124.532 13.9062 123.292 14.4121 122.315 15.4238Z" fill="white"/>
<path d="M140.745 33.1402V29.4699C141.794 29.4699 142.592 29.2817 143.14 28.9052C143.712 28.5288 144.213 27.8818 144.642 26.9642L144.999 26.2583L137.349 10.483H141.424L145.678 19.8L146.822 22.5527L147.966 19.6235L151.792 10.483H155.796L147.716 28.7288C146.406 31.6697 144.082 33.1402 140.745 33.1402Z" fill="white"/>
</g>
<defs>
<clipPath id="clip0_12_3">
<rect width="156" height="33" fill="white" transform="translate(0 0.5)"/>
</clipPath>
</defs>
</svg>
