<svg width="158" height="30" viewBox="0 0 158 30" fill="none" xmlns="http://www.w3.org/2000/svg">
<path fill-rule="evenodd" clip-rule="evenodd" d="M44.0592 29.2818V0H47.5451V10.9499H47.6272C48.2013 9.77428 49.1036 8.92672 50.3339 8.40725C51.5642 7.86043 52.9176 7.58703 54.394 7.58703C56.0344 7.58703 57.4561 7.88777 58.6591 8.48927C59.8894 9.09076 60.901 9.91098 61.6939 10.9499C62.5141 11.9615 63.1293 13.1372 63.5394 14.4769C63.9495 15.8166 64.1546 17.2383 64.1546 18.742C64.1546 20.2457 63.9495 21.6675 63.5394 23.0071C63.1566 24.3468 62.5551 25.5225 61.7349 26.5341C60.942 27.5183 59.9304 28.2976 58.7001 28.8717C57.4971 29.4459 56.0891 29.7329 54.476 29.7329C53.9565 29.7329 53.3687 29.6783 52.7125 29.5689C52.0837 29.4595 51.4548 29.2818 50.826 29.0358C50.1972 28.7897 49.5957 28.4616 49.0215 28.0515C48.4747 27.614 48.0099 27.0809 47.6272 26.4521H47.5451V29.2818H44.0592ZM60.1355 21.5307C60.3542 20.5465 60.4636 19.5349 60.4636 18.4959C60.4636 17.5117 60.3269 16.5548 60.0535 15.6252C59.8074 14.6683 59.411 13.8207 58.8642 13.0825C58.3447 12.3443 57.6612 11.7565 56.8136 11.319C55.9934 10.8816 55.0228 10.6628 53.9018 10.6628C52.7262 10.6628 51.7283 10.8952 50.908 11.36C50.0878 11.8248 49.418 12.44 48.8985 13.2055C48.379 13.9437 47.9963 14.7913 47.7502 15.7482C47.5315 16.7051 47.4221 17.6757 47.4221 18.66C47.4221 19.6989 47.5451 20.7105 47.7912 21.6948C48.0373 22.6517 48.42 23.4993 48.9395 24.2375C49.4863 24.9757 50.1835 25.5772 51.0311 26.042C51.8786 26.4794 52.9039 26.6981 54.1069 26.6981C55.3099 26.6981 56.3078 26.4657 57.1007 26.0009C57.9209 25.5361 58.5771 24.921 59.0692 24.1554C59.5613 23.3899 59.9168 22.515 60.1355 21.5307ZM21.9681 8.07916V29.2818H25.454V17.3066C25.454 16.3497 25.5771 15.4748 25.8231 14.6819C26.0965 13.8617 26.493 13.1508 27.0124 12.5494C27.5319 11.9479 28.1744 11.4831 28.9399 11.155C29.7328 10.8269 30.6624 10.6628 31.7287 10.6628C33.0684 10.6628 34.121 11.0456 34.8865 11.8112C35.6521 12.5767 36.0348 13.6156 36.0348 14.928V29.2818H39.5208V15.3381C39.5208 14.1898 39.3977 13.1508 39.1517 12.2213C38.9329 11.2643 38.5365 10.4441 37.9624 9.7606C37.3882 9.07709 36.6363 8.54395 35.7068 8.16118C34.7772 7.77841 33.6152 7.58703 32.2208 7.58703C29.0767 7.58703 26.78 8.87204 25.331 11.4421H25.249V8.07916H21.9681ZM17.5527 29.2818V8.07916H14.0668V20.0544C14.0668 21.0113 13.93 21.8998 13.6566 22.7201C13.4106 23.5129 13.0278 24.2101 12.5083 24.8116C11.9889 25.4131 11.3327 25.8779 10.5398 26.206C9.77427 26.5341 8.85836 26.6981 7.79208 26.6981C6.45239 26.6981 5.39977 26.3154 4.63424 25.5498C3.8687 24.7843 3.48593 23.7453 3.48593 22.433V8.07916H0V22.0229C0 23.1712 0.109363 24.2238 0.328088 25.1807C0.574153 26.1103 0.984262 26.9169 1.55842 27.6004C2.13257 28.2839 2.88444 28.817 3.81402 29.1998C4.7436 29.5552 5.90558 29.7329 7.29995 29.7329C8.85836 29.7329 10.2117 29.4322 11.36 28.8307C12.5083 28.2019 13.4516 27.2313 14.1898 25.9189H14.2718V29.2818H17.5527ZM90.0322 8.07916V29.2818H93.5181V19.8493C93.5181 18.4823 93.6548 17.2793 93.9282 16.2403C94.2016 15.1741 94.639 14.2718 95.2405 13.5336C95.842 12.7954 96.6349 12.2349 97.6192 11.8522C98.6034 11.4694 99.7928 11.278 101.187 11.278V7.58703C99.3006 7.53234 97.7422 7.91511 96.5119 8.73533C95.2816 9.55555 94.2426 10.8269 93.3951 12.5494H93.313V8.07916H90.0322ZM105.142 15.8302C104.923 16.8145 104.814 17.8261 104.814 18.865C104.814 19.8493 104.937 20.8199 105.183 21.7768C105.456 22.7064 105.853 23.5403 106.372 24.2785C106.919 25.0167 107.602 25.6045 108.423 26.042C109.27 26.4794 110.254 26.6981 111.375 26.6981C112.551 26.6981 113.549 26.4657 114.369 26.0009C115.189 25.5361 115.859 24.9347 116.379 24.1965C116.898 23.4309 117.267 22.5697 117.486 21.6128C117.732 20.6558 117.855 19.6853 117.855 18.701C117.855 17.662 117.732 16.6641 117.486 15.7072C117.24 14.7229 116.844 13.8617 116.297 13.1235C115.777 12.3853 115.094 11.7975 114.246 11.36C113.399 10.8952 112.373 10.6628 111.17 10.6628C109.995 10.6628 108.997 10.8952 108.177 11.36C107.356 11.8248 106.7 12.44 106.208 13.2055C105.716 13.9711 105.361 14.846 105.142 15.8302ZM121.218 0V29.2818H117.732V26.411H117.65C117.076 27.5867 116.174 28.4343 114.943 28.9537C113.713 29.4732 112.36 29.7329 110.883 29.7329C109.243 29.7329 107.808 29.4322 106.577 28.8307C105.374 28.2292 104.363 27.4227 103.542 26.411C102.749 25.3994 102.148 24.2238 101.738 22.8841C101.328 21.5444 101.123 20.1227 101.123 18.619C101.123 17.1152 101.314 15.6935 101.697 14.3538C102.107 13.0141 102.708 11.8522 103.501 10.8679C104.322 9.8563 105.333 9.06342 106.536 8.48927C107.766 7.88777 109.188 7.58703 110.801 7.58703C111.348 7.58703 111.936 7.64171 112.565 7.75107C113.194 7.86043 113.822 8.05182 114.451 8.32522C115.08 8.57129 115.668 8.91305 116.215 9.3505C116.789 9.76061 117.267 10.2801 117.65 10.9089H117.732V0H121.218ZM140.484 16.6504H128.304C128.358 15.8302 128.536 15.0647 128.837 14.3538C129.138 13.6156 129.548 12.9731 130.067 12.4263C130.587 11.8795 131.202 11.4557 131.913 11.155C132.651 10.8269 133.471 10.6628 134.373 10.6628C135.248 10.6628 136.041 10.8269 136.752 11.155C137.49 11.4557 138.119 11.8795 138.638 12.4263C139.185 12.9458 139.609 13.5746 139.91 14.3128C140.238 15.051 140.429 15.8302 140.484 16.6504ZM143.847 22.556H140.402C140.101 23.9504 139.472 24.9893 138.515 25.6729C137.586 26.3564 136.383 26.6981 134.906 26.6981C133.758 26.6981 132.76 26.5067 131.913 26.124C131.065 25.7412 130.368 25.2354 129.821 24.6066C129.274 23.9504 128.878 23.2122 128.632 22.392C128.386 21.5444 128.276 20.6558 128.304 19.7263H144.175C144.23 18.4413 144.107 17.0879 143.806 15.6662C143.532 14.2445 143.013 12.9321 142.247 11.7291C141.509 10.5261 140.511 9.54188 139.254 8.77634C138.023 7.98346 136.465 7.58703 134.578 7.58703C133.129 7.58703 131.79 7.86043 130.559 8.40725C129.356 8.95406 128.304 9.71959 127.401 10.7039C126.527 11.6881 125.843 12.8501 125.351 14.1898C124.859 15.5295 124.613 17.0059 124.613 18.619C124.667 20.2321 124.9 21.7221 125.31 23.0892C125.747 24.4562 126.39 25.6318 127.237 26.6161C128.085 27.6004 129.124 28.3659 130.354 28.9127C131.612 29.4595 133.088 29.7329 134.783 29.7329C137.189 29.7329 139.185 29.1314 140.771 27.9285C142.357 26.7255 143.382 24.9347 143.847 22.556ZM146.845 29.2818V8.07916H150.126V12.5494H150.208C151.056 10.8269 152.095 9.55555 153.325 8.73533C154.555 7.91511 156.114 7.53234 158 7.58703V11.278C156.606 11.278 155.416 11.4694 154.432 11.8522C153.448 12.2349 152.655 12.7954 152.053 13.5336C151.452 14.2718 151.015 15.1741 150.741 16.2403C150.468 17.2793 150.331 18.4823 150.331 19.8493V29.2818H146.845ZM73.7171 29.5504C80.4862 29.5504 87.3421 26.5987 87.3421 20.3675C87.3421 20.0703 87.3444 19.7578 87.3468 19.4333V19.4319C87.38 14.8462 87.4306 7.86717 81.3683 7.86719C74.5609 7.86719 66.6875 12.7084 66.6875 18.9331C66.6875 25.1578 66.9098 29.5504 73.7171 29.5504ZM70.4354 18.973C70.4354 14.2355 72.9062 10.4746 77.1812 10.3954C77.2876 10.3909 77.3946 10.3887 77.5022 10.3887C81.3068 10.3887 84.391 13.2471 84.391 18.8061C84.391 21.6196 83.601 23.7413 82.3275 25.1508C81.145 26.6404 79.4459 27.5519 77.3192 27.5519C72.9594 27.5519 70.4354 23.8011 70.4354 18.973Z" fill="#F4F2EF"/>
</svg>
